<mxfile host="app.diagrams.net" modified="2021-03-10T10:27:28.139Z" agent="5.0 (Windows NT 10.0; Win64; x64) AppleWebKit/537.36 (KHTML, like Gecko) Chrome/89.0.4389.82 Safari/537.36" etag="imA6u_cX5z6WqCP1RKNA" version="14.4.4" type="github">
  <diagram id="irsdwW_tOKDCne4iezwN" name="Page-1">
    <mxGraphModel dx="813" dy="435" grid="1" gridSize="10" guides="1" tooltips="1" connect="1" arrows="1" fold="1" page="1" pageScale="1" pageWidth="850" pageHeight="1100" math="0" shadow="0">
      <root>
        <mxCell id="0" />
        <mxCell id="1" parent="0" />
        <mxCell id="DP2KFUbwlQkFfpIZlSsb-1" value="decryptor.js" style="shape=umlLifeline;perimeter=lifelinePerimeter;container=1;collapsible=0;recursiveResize=0;rounded=0;shadow=0;strokeWidth=1;" vertex="1" parent="1">
          <mxGeometry x="210" y="210" width="100" height="300" as="geometry" />
        </mxCell>
        <mxCell id="DP2KFUbwlQkFfpIZlSsb-2" value="" style="points=[];perimeter=orthogonalPerimeter;rounded=0;shadow=0;strokeWidth=1;" vertex="1" parent="DP2KFUbwlQkFfpIZlSsb-1">
          <mxGeometry x="45" y="70" width="10" height="190" as="geometry" />
        </mxCell>
        <mxCell id="DP2KFUbwlQkFfpIZlSsb-3" value="" style="endArrow=classic;html=1;entryX=0;entryY=0.5;entryDx=0;entryDy=0;exitX=0.92;exitY=0.315;exitDx=0;exitDy=0;exitPerimeter=0;" edge="1" parent="1" source="DP2KFUbwlQkFfpIZlSsb-2" target="DP2KFUbwlQkFfpIZlSsb-4">
          <mxGeometry width="50" height="50" relative="1" as="geometry">
            <mxPoint x="270" y="340" as="sourcePoint" />
            <mxPoint x="360" y="320" as="targetPoint" />
          </mxGeometry>
        </mxCell>
        <mxCell id="DP2KFUbwlQkFfpIZlSsb-6" style="edgeStyle=orthogonalEdgeStyle;rounded=0;orthogonalLoop=1;jettySize=auto;html=1;entryX=0.5;entryY=1;entryDx=0;entryDy=0;strokeColor=none;dashed=1;" edge="1" parent="1" source="DP2KFUbwlQkFfpIZlSsb-4" target="DP2KFUbwlQkFfpIZlSsb-5">
          <mxGeometry relative="1" as="geometry" />
        </mxCell>
        <mxCell id="DP2KFUbwlQkFfpIZlSsb-7" style="edgeStyle=orthogonalEdgeStyle;rounded=0;orthogonalLoop=1;jettySize=auto;html=1;dashed=1;" edge="1" parent="1" source="DP2KFUbwlQkFfpIZlSsb-4">
          <mxGeometry relative="1" as="geometry">
            <mxPoint x="410" y="270" as="targetPoint" />
          </mxGeometry>
        </mxCell>
        <mxCell id="DP2KFUbwlQkFfpIZlSsb-9" style="edgeStyle=orthogonalEdgeStyle;rounded=0;orthogonalLoop=1;jettySize=auto;html=1;entryX=0.5;entryY=0;entryDx=0;entryDy=0;" edge="1" parent="1" source="DP2KFUbwlQkFfpIZlSsb-4" target="DP2KFUbwlQkFfpIZlSsb-11">
          <mxGeometry relative="1" as="geometry">
            <mxPoint x="410" y="420" as="targetPoint" />
          </mxGeometry>
        </mxCell>
        <mxCell id="DP2KFUbwlQkFfpIZlSsb-13" style="edgeStyle=orthogonalEdgeStyle;rounded=0;orthogonalLoop=1;jettySize=auto;html=1;exitX=1.015;exitY=0.163;exitDx=0;exitDy=0;dashed=1;exitPerimeter=0;" edge="1" parent="1" source="DP2KFUbwlQkFfpIZlSsb-4" target="DP2KFUbwlQkFfpIZlSsb-16">
          <mxGeometry relative="1" as="geometry">
            <mxPoint x="520" y="325" as="targetPoint" />
          </mxGeometry>
        </mxCell>
        <mxCell id="DP2KFUbwlQkFfpIZlSsb-19" style="edgeStyle=orthogonalEdgeStyle;rounded=0;orthogonalLoop=1;jettySize=auto;html=1;exitX=1.005;exitY=0.837;exitDx=0;exitDy=0;dashed=1;exitPerimeter=0;entryX=0;entryY=0.5;entryDx=0;entryDy=0;" edge="1" parent="1" source="DP2KFUbwlQkFfpIZlSsb-4" target="DP2KFUbwlQkFfpIZlSsb-20">
          <mxGeometry relative="1" as="geometry">
            <mxPoint x="520" y="430" as="targetPoint" />
            <Array as="points">
              <mxPoint x="520" y="360" />
              <mxPoint x="520" y="425" />
            </Array>
          </mxGeometry>
        </mxCell>
        <mxCell id="DP2KFUbwlQkFfpIZlSsb-4" value="decryptData(data)" style="rounded=0;whiteSpace=wrap;html=1;" vertex="1" parent="1">
          <mxGeometry x="350" y="310.0000000000001" width="120" height="60" as="geometry" />
        </mxCell>
        <mxCell id="DP2KFUbwlQkFfpIZlSsb-5" value="encrypted.txt" style="rounded=1;whiteSpace=wrap;html=1;" vertex="1" parent="1">
          <mxGeometry x="350" y="210" width="120" height="60" as="geometry" />
        </mxCell>
        <mxCell id="DP2KFUbwlQkFfpIZlSsb-8" value="data" style="text;html=1;align=center;verticalAlign=middle;resizable=0;points=[];autosize=1;" vertex="1" parent="1">
          <mxGeometry x="405" y="290" width="40" height="20" as="geometry" />
        </mxCell>
        <mxCell id="DP2KFUbwlQkFfpIZlSsb-10" value="produces" style="text;html=1;align=center;verticalAlign=middle;resizable=0;points=[];autosize=1;" vertex="1" parent="1">
          <mxGeometry x="410" y="370" width="60" height="20" as="geometry" />
        </mxCell>
        <mxCell id="DP2KFUbwlQkFfpIZlSsb-11" value="decrypted.txt" style="rounded=1;whiteSpace=wrap;html=1;" vertex="1" parent="1">
          <mxGeometry x="350" y="490" width="120" height="60" as="geometry" />
        </mxCell>
        <mxCell id="DP2KFUbwlQkFfpIZlSsb-16" value="getNextCode(dataString, index)" style="rounded=0;whiteSpace=wrap;html=1;" vertex="1" parent="1">
          <mxGeometry x="535" y="300" width="180" height="40" as="geometry" />
        </mxCell>
        <mxCell id="DP2KFUbwlQkFfpIZlSsb-17" value="&lt;font style=&quot;font-size: 7px&quot;&gt;dataString = data&lt;/font&gt;" style="text;html=1;align=center;verticalAlign=middle;resizable=0;points=[];autosize=1;" vertex="1" parent="1">
          <mxGeometry x="465" y="300" width="70" height="20" as="geometry" />
        </mxCell>
        <mxCell id="DP2KFUbwlQkFfpIZlSsb-22" style="edgeStyle=orthogonalEdgeStyle;rounded=0;orthogonalLoop=1;jettySize=auto;html=1;entryX=0.5;entryY=1;entryDx=0;entryDy=0;dashed=1;" edge="1" parent="1" source="DP2KFUbwlQkFfpIZlSsb-20" target="DP2KFUbwlQkFfpIZlSsb-16">
          <mxGeometry relative="1" as="geometry" />
        </mxCell>
        <mxCell id="DP2KFUbwlQkFfpIZlSsb-23" style="edgeStyle=orthogonalEdgeStyle;rounded=0;orthogonalLoop=1;jettySize=auto;html=1;dashed=1;" edge="1" parent="1" source="DP2KFUbwlQkFfpIZlSsb-20">
          <mxGeometry relative="1" as="geometry">
            <mxPoint x="625" y="480" as="targetPoint" />
          </mxGeometry>
        </mxCell>
        <mxCell id="DP2KFUbwlQkFfpIZlSsb-20" value="matchLetter(code, substitutionTable" style="rounded=0;whiteSpace=wrap;html=1;" vertex="1" parent="1">
          <mxGeometry x="535" y="410" width="180" height="30" as="geometry" />
        </mxCell>
        <mxCell id="DP2KFUbwlQkFfpIZlSsb-24" value="&lt;span&gt;substitution_table.json&lt;/span&gt;" style="rounded=1;whiteSpace=wrap;html=1;" vertex="1" parent="1">
          <mxGeometry x="563.75" y="480" width="122.5" height="60" as="geometry" />
        </mxCell>
      </root>
    </mxGraphModel>
  </diagram>
</mxfile>
